<?xml version="1.0" encoding="UTF-8" standalone="no"?>
<!-- Created with Inkscape (http://www.inkscape.org/) -->

<svg
   width="73.464363mm"
   height="75.893723mm"
   viewBox="0 0 73.464363 75.893723"
   version="1.1"
   id="svg1"
   xml:space="preserve"
   xmlns:xlink="http://www.w3.org/1999/xlink"
   xmlns="http://www.w3.org/2000/svg"
   xmlns:svg="http://www.w3.org/2000/svg"><defs
     id="defs1"><linearGradient
       id="linearGradient46"><stop
         style="stop-color:#b3b3b3;stop-opacity:1;"
         offset="0"
         id="stop46" /><stop
         style="stop-color:#f3f3f3;stop-opacity:1;"
         offset="0.72144848"
         id="stop47" /></linearGradient><linearGradient
       id="linearGradient43"><stop
         style="stop-color:#999999;stop-opacity:1;"
         offset="0"
         id="stop43" /><stop
         style="stop-color:#ffffff;stop-opacity:1;"
         offset="0.94428968"
         id="stop44" /></linearGradient><linearGradient
       id="linearGradient38"><stop
         style="stop-color:#a0a0a0;stop-opacity:1;"
         offset="0"
         id="stop38" /><stop
         style="stop-color:#e1e1e1;stop-opacity:1;"
         offset="1"
         id="stop39" /></linearGradient><linearGradient
       xlink:href="#linearGradient38"
       id="linearGradient39"
       x1="152.81854"
       y1="184.49844"
       x2="152.81854"
       y2="160.6777"
       gradientUnits="userSpaceOnUse" /><linearGradient
       xlink:href="#linearGradient43"
       id="linearGradient44"
       x1="91.164734"
       y1="164.24438"
       x2="91.164734"
       y2="105.58926"
       gradientUnits="userSpaceOnUse" /><linearGradient
       xlink:href="#linearGradient46"
       id="linearGradient47"
       x1="171.07892"
       y1="144.65271"
       x2="171.07892"
       y2="97.584084"
       gradientUnits="userSpaceOnUse" /></defs><g
     id="layer4"
     transform="translate(-10.848965,-6.6387326)"><g
       id="g47"
       transform="matrix(-1,0,0,1,131.34145,-76.788864)"><g
         id="g35"
         transform="translate(-93.880064,-32.480827)"
         style="display:inline;fill:#d7e0dd;fill-opacity:1;stroke:#dba0f3;stroke-opacity:1"><path
           id="path34"
           style="fill:url(#linearGradient39);fill-opacity:1;stroke:#000000;stroke-width:0.264583px;stroke-linecap:butt;stroke-linejoin:miter;stroke-opacity:1"
           d="m 164.1998,156.5084 -3.53622,-2.55643 -0.92294,3.85919 -3.27163,-3.27215 -1.84588,3.69176 -2.60088,-3.35586 -2.43292,2.7683 -1.17461,-2.60036 -1.55443,1.10588 c -2.72809,5.5216 -6.46567,10.40066 -3.97133,18.12861 -1.13308,-0.76113 -0.90894,-0.95479 -1.83813,-1.6707 -0.33437,9.40408 7.511,17.9347 15.41249,18.6955 0.35359,-8.29459 10.2044,-22.50764 7.73648,-34.79374 z" /><path
           id="path37"
           style="fill:#ffffff;fill-opacity:1;stroke:#0a0a0a;stroke-width:0.264583px;stroke-linecap:butt;stroke-linejoin:miter;stroke-opacity:1"
           d="m 147.90881,140.25151 c 2.61471,6.8247 1.09477,11.55927 -1.04852,15.89722 l 1.55443,-1.10588 1.17461,2.60036 2.43292,-2.7683 2.60088,3.35586 1.84588,-3.69176 3.27163,3.27215 0.92294,-3.85919 3.53622,2.55643 c -1.25899,-6.26765 -5.72412,-12.03377 -16.29099,-16.25689 z" /></g><g
         id="g1"><path
           style="display:inline;fill:url(#linearGradient44);fill-opacity:1;stroke:#000000;stroke-width:0.264583px;stroke-linecap:butt;stroke-linejoin:miter;stroke-opacity:1"
           d="m 61.969466,158.80861 c 9.575852,0.44892 28.489361,-0.006 28.489361,-0.006 0,0 2.82702,-1.63901 7.037143,-14.97122 6.88854,10.04065 9.95567,15.16705 9.95567,15.16705 l 9.85448,0.18951 c 0,0 3.34837,-3.42755 3.03215,-5.49576 -0.30388,-1.98745 -1.54026,-3.52989 -4.35872,-4.1692 -1.43818,-0.32622 -3.58518,0.49752 -4.35871,-0.75804 -3.1283,-5.07773 -6.09222,-7.20493 -9.41582,-15.51643 -0.41556,-1.03919 -0.43886,-2.75508 -0.0636,-3.80971 1.5304,-4.30082 3.94971,-10.33742 5.22201,-13.47165 0.46491,-1.14527 0.0378,-2.67688 -1.06138,-3.24224 -3.32547,-1.71048 -10.730244,-4.14804 -20.075445,1.17036 -1.548618,17.81866 -24.05618,15.44057 -24.257159,44.91366 z"
           id="path14" /><path
           style="display:inline;fill:none;stroke:#000000;stroke-width:0.264583px;stroke-linecap:butt;stroke-linejoin:miter;stroke-opacity:1"
           d="m 114.66736,152.25232 c 2.05397,0.12592 3.52113,0.50247 4.30812,2.46431 0.18464,0.46028 0.24761,2.16985 0.24761,2.16985"
           id="path36" /></g><g
         id="g33"
         transform="translate(-74.361561,-17.214631)"
         style="fill:#d7e0dd;fill-opacity:1"><path
           style="fill:url(#linearGradient47);fill-opacity:1;stroke:#00004a;stroke-width:0.264583px;stroke-linecap:butt;stroke-linejoin:miter;stroke-opacity:1"
           d="m 148.11597,123.15301 c 0,0 2.0866,-2.5054 4.18132,-4.56179 -5.61588,-11.61565 -0.57756,-17.60442 -0.57756,-17.60442 0,0 6.29493,-2.279801 12.21727,8.03864 4.52685,-0.91533 9.04746,-1.1873 14.39347,0.0599 5.38091,-9.847049 12.83717,-8.11171 12.83717,-8.11171 0,0 4.49113,3.66633 -1.18237,17.65581 2.97859,3.31391 4.12804,4.62166 4.12804,4.62166 l -2.1272,1.29791 2.32662,0.68973 c 0,0 -14.45466,10.12094 -19.25194,14.26574 -2.5296,2.01666 -3.71139,3.15374 -7.7219,-0.024 -4.70827,-4.18944 -19.49211,-14.23188 -19.49211,-14.23188 l 2.49776,-0.76941 z"
           id="path25" /><g
           id="g31"
           style="fill:#d7e0dd;fill-opacity:1;stroke:none"><path
             style="fill:#ffffff;fill-opacity:1;stroke:#000000;stroke-width:0.264583px;stroke-linecap:butt;stroke-linejoin:miter;stroke-opacity:1"
             d="m 158.91618,121.79884 c 3.52899,-1.42336 7.07712,-1.342 8.71721,4.73912 -6.62742,1.82629 -8.19892,-1.7937 -8.71721,-4.73912 z"
             id="path26" /><ellipse
             style="fill:#000000;fill-opacity:1;stroke:none;stroke-width:0.264583;stroke-opacity:1"
             id="path27"
             cx="163.75719"
             cy="124.23483"
             rx="2.320369"
             ry="2.7387962" /><ellipse
             style="fill:#ffffff;fill-opacity:1;stroke:none;stroke-width:0.264583;stroke-opacity:1"
             id="path28"
             cx="164.7317"
             cy="123.25609"
             rx="0.64247936"
             ry="0.71386594" /></g><g
           id="g32"
           style="fill:#d7e0dd;fill-opacity:1;stroke:none"><path
             style="fill:#ffffff;fill-opacity:1;stroke:#000000;stroke-width:0.264583px;stroke-linecap:butt;stroke-linejoin:miter;stroke-opacity:1"
             d="m 183.29065,121.79884 c -3.52899,-1.42336 -7.07712,-1.342 -8.71721,4.73912 6.62742,1.82629 8.19892,-1.7937 8.71721,-4.73912 z"
             id="path30" /><ellipse
             style="fill:#000000;fill-opacity:1;stroke:none;stroke-width:0.264583;stroke-opacity:1"
             id="ellipse30"
             cx="-178.44965"
             cy="124.23483"
             rx="2.320369"
             ry="2.7387962"
             transform="scale(-1,1)" /><ellipse
             style="fill:#ffffff;fill-opacity:1;stroke:none;stroke-width:0.264583;stroke-opacity:1"
             id="ellipse31"
             cx="-177.47513"
             cy="123.25609"
             rx="0.64247936"
             ry="0.71386594"
             transform="scale(-1,1)" /></g><path
           style="fill:#e5e5e5;fill-opacity:1;stroke:#000000;stroke-width:0.264583px;stroke-linecap:butt;stroke-linejoin:miter;stroke-opacity:1"
           d="m 154.31382,116.04156 c 2.6663,-2.84243 2.88311,-3.10561 6.20497,-5.72479 -3.35934,-5.73441 -6.35466,-5.99253 -7.25924,-5.4036 -1.4172,1.03469 -1.78421,5.47517 1.05427,11.12839 z"
           id="path32" /><path
           style="fill:#e5e5e5;fill-opacity:1;stroke:#000000;stroke-width:0.264583px;stroke-linecap:butt;stroke-linejoin:miter;stroke-opacity:1"
           d="m 187.96911,116.13914 c -2.6663,-2.84243 -2.88311,-3.10561 -6.20497,-5.72479 3.35934,-5.73441 6.84263,-5.99253 7.74721,-5.4036 1.4172,1.03469 1.29624,5.47517 -1.54224,11.12839 z"
           id="path33" /><path
           d="m -169.86909,131.73868 q 0,0.13391 -0.0478,0.25824 l -0.0383,0.0957 0.0191,0.16259 -0.11477,0.10521 q -0.0765,0.067 -0.11478,0.21999 -0.0669,0.27736 -0.0669,0.27736 l -0.18172,0.17216 q -0.0383,0.1626 -0.23911,0.35389 -0.25824,0.23911 -0.33476,0.35388 l -0.17216,-0.0287 q -0.11477,0.15303 -0.31563,0.20085 l -0.25824,0.0574 -0.0765,-0.0574 h -0.0478 l -0.0191,0.0478 -0.0765,0.0191 -0.0861,0.0478 -0.0287,-0.0287 -0.0478,0.0287 -0.23911,-0.20086 0.01,-0.14346 -0.0383,-0.0478 0.0287,-0.23912 v -0.42083 l 0.0287,-0.11478 0.0382,-0.33475 -0.1052,0.21042 -0.0765,0.0574 -0.0383,0.0765 -0.0669,0.0287 -0.0956,0.1626 -0.17216,0.17216 -0.067,0.0765 -0.13391,0.13391 -0.0383,0.0861 -0.21998,0.14346 -0.23911,0.26781 -0.11477,0.0287 -0.0957,0.0765 q -0.12433,-0.0287 -0.18172,-0.14347 -0.24868,-0.11477 -0.27737,-0.39214 l 0.0574,-0.0287 -0.01,-0.0669 v -0.10521 l -0.0574,-0.067 0.0765,-0.0861 0.0287,-0.16259 0.067,-0.22955 v -0.0383 q 0,-0.0287 0.0191,-0.0861 v -0.0478 q 0,-0.067 0.0287,-0.15303 l 0.0478,-0.01 q 0.0287,-0.01 0.0287,-0.0383 0,-0.0287 -0.0287,-0.0574 l -0.0287,-0.0574 q 0.0383,-0.15303 0.10521,-0.16259 0.0191,-0.0574 0.0287,-0.0765 v -0.12434 l 0.12434,-0.12433 q 0,-0.18173 0.1339,-0.25824 l 0.01,-0.12434 q 0.0287,-0.0957 0.0574,-0.1339 l 0.01,-0.0861 q 0.0191,0.0191 0.0287,0.0191 0.01,0 0.01,-0.01 0,-0.0191 -0.0191,-0.0478 0.10521,-0.10521 0.24868,-0.2965 l 0.0765,-0.0287 q 0.10521,0 0.13391,-0.067 l 0.15303,-0.0765 0.42083,-0.01 v 0.0478 l 0.19129,0.0478 q 0.01,0 0.12434,0.0287 0.0191,0.0669 0.0861,0.0669 h 0.0287 l 0.0574,0.0574 0.18173,0.0478 0.01,-0.0382 -0.0478,0.0287 0.22954,-0.0191 0.0383,0.12434 0.0765,0.0765 -0.0574,0.0383 0.0383,0.1626 -0.0861,0.0956 -0.0478,0.14347 -0.0383,0.0574 0.0287,0.0861 q -0.0861,0.17217 -0.0861,0.17217 0,0.01 0.0191,0.067 l -0.0191,0.0382 0.01,0.0478 -0.0287,0.067 v 0.0765 l -0.0478,0.0574 0.01,0.14347 0.01,0.0287 -0.0287,0.0287 -0.0191,0.0574 0.0191,0.0574 -0.0574,0.0861 -0.0191,0.0574 0.0191,0.0957 -0.0574,0.0669 0.0574,0.0574 -0.0765,0.14346 -0.0191,0.0669 0.0574,0.01 -0.0478,0.11477 v 0.0669 h -0.0287 l 0.0191,0.11478 h 0.11477 l 0.0287,0.0765 0.0574,-0.01 0.15303,-0.0478 0.0478,0.0574 0.0478,-0.0287 q 0.0287,0.01 0.067,0.01 0.11477,0 0.14346,-0.17216 h 0.0765 l 0.0287,-0.0765 q 0.0765,0.0287 0.11478,0.0287 0.0669,0 0.0669,-0.0765 0.0956,-0.0191 0.14346,-0.19128 0.0574,-0.18173 0.19129,-0.21042 0.0287,-0.1626 0.10521,-0.19129 v -0.0669 q 0,-0.20086 0.11477,-0.26781 0.0574,-0.0574 0.0574,-0.14346 v -0.0287 l 0.0574,-0.11477 -0.0478,-0.0669 v -0.11477 q -0.0287,-0.0287 -0.0287,-0.0765 0,-0.0669 0.0861,-0.15303 l 0.01,-0.18173 -0.12434,-0.11477 0.0861,-0.20085 -0.12434,-0.0957 -0.0383,-0.31562 -0.0861,0.01 -0.16259,-0.27737 -0.0861,-0.0191 -0.11478,-0.15303 -0.0765,0.0287 -0.12434,-0.0765 h -0.0956 l -0.067,-0.0956 -0.0861,-0.01 -0.12433,-0.12434 h -0.14347 l -0.11477,-0.0765 q -0.0765,-0.0191 -0.21042,-0.0191 -0.1339,0 -0.19129,0.0191 -0.24868,0.0191 -0.22955,0.0191 -0.0287,0 -0.0765,-0.0191 -0.0383,-0.0287 -0.0574,-0.0287 l -0.0383,0.0191 -0.1339,0.0957 q -0.0478,0.01 -0.15303,0.01 -0.11477,0 -0.17216,-0.0191 -0.21998,0.0765 -0.44953,0.20086 l -0.067,0.11477 -0.19129,0.01 -0.0574,0.0478 q -0.1339,0.01 -0.21998,0.21041 l -0.0669,-0.01 q -0.0669,0.0956 -0.2965,0.22955 l -0.0669,0.16259 -0.11477,0.0574 q -0.10521,0.12434 -0.12434,0.20085 -0.0383,0.1626 -0.1626,0.19129 v 0.0574 l -0.0956,0.0383 q 0.01,0.0287 0.01,0.0765 0,0.1339 -0.14346,0.21998 l -0.0191,0.19129 -0.11478,0.25824 -0.16259,0.42084 -0.0287,0.10521 q 0.0382,0.0765 0.0382,0.10521 0,0.0382 -0.0287,0.0956 l 0.0478,0.0765 -0.0287,0.1052 -0.0191,0.12434 0.0669,0.24868 -0.0191,0.17216 0.0861,0.16259 0.0191,0.0956 h 0.0191 l 0.0765,0.17216 0.0382,0.1339 v 0.067 l 0.0383,0.0383 0.1626,0.23911 0.14346,0.0478 0.0383,0.0669 0.0478,0.0191 q 0.13391,0.21999 0.34432,0.21999 l 0.067,0.0574 0.12433,-0.01 0.0765,0.0861 h 0.11477 l 0.10521,0.0765 0.0287,-0.0191 0.1626,0.0478 0.0574,-0.0191 q 0.0574,-0.0191 0.0956,-0.0191 0.0574,0 0.15303,0.0478 l 0.1339,0.0669 0.13391,0.0383 0.21998,-0.0383 0.19129,-0.0574 q 0.0574,0.0287 0.12434,0.0287 0.0574,0 0.15303,-0.0478 l 0.18172,-0.0574 0.14347,-0.01 0.17216,-0.0957 q 0.34432,-0.0574 0.62169,-0.23911 l 0.0956,-0.0765 0.24868,-0.11477 0.21998,0.0478 q 0.01,0 0.0287,-0.01 0.0191,0 0.0287,0 0.20085,0 0.22954,0.30606 -0.067,0.1339 -0.20085,0.18173 l -0.0287,0.0478 q -0.0957,0 -0.23911,0.12434 -0.14347,0.12433 -0.27737,0.12433 h -0.0574 q -0.20085,0.0574 -0.4304,0.17216 -0.0191,-0.01 -0.0574,-0.01 -0.0574,0 -0.14346,0.0574 l -0.18173,0.0478 -0.2965,0.0478 q -0.11477,0.0191 -0.17216,0.0191 -0.0861,0 -0.20085,-0.0478 h -0.30606 l -0.0765,-0.0478 h -0.0861 l -0.10521,0.01 -0.22954,-0.01 -0.1626,-0.0574 -0.0861,-0.0478 -0.11477,-0.01 q -0.0191,-0.0287 -0.24868,-0.0478 l -0.14346,-0.0765 q -0.0287,0.01 -0.0861,0.01 -0.13391,0 -0.21999,-0.10521 -0.0287,-0.0383 -0.0574,-0.0383 -0.01,0 -0.01,0.0191 l -0.16259,-0.01 -0.0574,-0.15304 -0.19129,-0.0956 -0.0765,-0.12434 -0.17216,-0.0669 -0.0287,-0.10521 -0.15303,-0.17216 -0.10521,-0.17216 -0.0478,-0.21998 -0.0669,-0.0765 -0.0191,-0.0861 -0.0765,-0.0383 0.01,-0.12434 -0.0287,-0.0957 0.01,-0.12433 h 0.01 q 0.01,0 0.01,-0.0191 0,-0.0478 -0.0574,-0.19129 l -0.0478,-0.20086 0.0191,-0.21998 0.0287,-0.0765 -0.01,-0.12434 0.0765,-0.15303 0.0191,-0.10521 -0.0191,-0.0956 0.0765,-0.1339 0.0191,-0.22954 0.21998,-0.4591 0.15303,-0.42083 0.17216,-0.1626 0.17216,-0.25824 0.21998,-0.23911 q 0.14347,-0.1626 0.28694,-0.33476 0.15303,-0.17216 0.31562,-0.21041 l 0.27737,-0.13391 0.20086,-0.14346 q 0.16259,-0.11478 0.24867,-0.11478 h 0.0861 l 0.11477,-0.10521 0.25824,-0.0861 q 0.01,0.067 0.0383,0.067 -0.01,0 0.0574,-0.0478 0.0669,-0.0478 0.19129,-0.0478 h 0.0574 l 0.0574,-0.067 0.26781,0.0478 0.12433,0.0383 0.067,-0.0574 q 0.0956,0.0383 0.1339,0.0383 0.0478,0 0.12434,-0.0383 l 0.11477,0.0383 0.0383,0.0383 q 0.0956,0 0.19129,0.0574 l 0.16259,0.0478 q 0.24868,0.0287 0.41127,0.17216 0.14347,0.0383 0.27737,0.18172 0.01,0.0478 0.10521,0.0765 0.0957,0.0287 0.1339,0.0956 l 0.10521,0.18173 0.14347,0.0574 0.0383,0.19129 0.1339,0.11478 0.0861,0.24867 -0.0383,0.0765 0.0669,0.1339 q -0.0478,0.0478 -0.0478,0.15303 v 0.0574 l 0.0861,0.0956 -0.0191,0.20085 q 0,0.01 0,0.01 -0.01,0.01 -0.01,0.0191 0,0.0191 0.01,0.0765 0.0191,0.0574 0.0191,0.0861 z m -2.25721,-0.1339 -0.01,-0.0861 -0.01,-0.0478 -0.0669,-0.0287 -0.14347,-0.13391 h -0.0956 l -0.0287,-0.0383 -0.11478,-0.0191 -0.0574,0.0191 -0.0287,-0.0287 q -0.0861,0.0191 -0.17216,0.0478 l 0.01,0.0191 -0.11478,0.0383 -0.0191,0.0287 -0.0287,0.01 q -0.11477,0.0669 -0.1626,0.19129 l -0.0956,0.1339 -0.0287,0.0574 0.0287,0.0765 -0.0765,0.0765 0.01,0.0383 q -0.0861,0.0956 -0.0861,0.23911 l -0.0383,0.0574 -0.0191,0.11478 -0.0383,0.0478 -0.0191,0.067 -0.0191,0.0191 -0.01,0.0861 -0.0287,0.0383 -0.0287,0.11477 0.0383,0.11477 -0.0765,0.0478 0.0191,0.0287 -0.0574,0.067 0.0383,0.12434 -0.0765,0.0861 v 0.12434 l 0.01,0.0383 0.0287,0.0191 0.0478,0.0287 q 0.0191,-0.0861 0.0861,-0.10521 v -0.0574 l 0.12434,-0.0287 0.0861,-0.0861 0.0191,-0.01 -0.0287,0.0287 h -0.0765 l 0.30606,-0.25824 0.0574,-0.0191 0.0478,-0.11478 q 0.067,-0.01 0.10521,-0.0669 l 0.0574,-0.0669 0.0383,-0.01 -0.0191,-0.10521 0.0669,-0.01 q 0.0574,-0.0765 0.17216,-0.21998 l 0.0574,-0.0478 q 0.01,-0.0478 0.13391,-0.14347 v -0.0191 l -0.0191,-0.0287 0.15303,-0.15303 0.0191,-0.0861 0.0383,-0.0191 -0.01,-0.0287 0.0383,-0.0574 0.0191,-0.0669 z"
           id="text37"
           style="font-size:9.56445px;line-height:1.25;font-family:'Bradley Hand';-inkscape-font-specification:'Bradley Hand, Normal';fill:#000000;stroke:#000000;stroke-width:0.239113"
           transform="scale(-0.99059332,1.009496)"
           aria-label="@" /></g></g></g></svg>
